# CAD Exchanger 3.24.0 (cadexchanger.com)
# Object Count: 6
mtllib Планировка.mtl
g unnamed1
v 2900.000000 150.000000 -2900.000000
v 2900.000000 650.000000 -2900.000000
v 2900.000000 150.000000 -2500.000000
v 2900.000000 650.000000 -2500.000000
v 2900.000000 4500.000000 -3200.000000
v 2900.000000 -4500.000000 -3200.000000
v 2900.000000 4500.000000 0.000000
v 2900.000000 -4500.000000 0.000000
v -2900.000000 -4500.000000 0.000000
v -2900.000000 -4500.000000 -3200.000000
v -2900.000000 4500.000000 -3200.000000
v -2900.000000 4500.000000 0.000000
v -350.000000 4500.000000 -2350.000000
v -2150.000000 4500.000000 -2350.000000
v -350.000000 4500.000000 0.000000
v -2150.000000 4500.000000 0.000000
vn 1.000000 0.000000 0.000000
vn 1.000000 0.000000 0.000000
vn 1.000000 0.000000 0.000000
vn 1.000000 0.000000 0.000000
vn 1.000000 0.000000 0.000000
vn 1.000000 0.000000 0.000000
vn 1.000000 0.000000 0.000000
vn 1.000000 0.000000 0.000000
vn 0.000000 -1.000000 0.000000
vn 0.000000 -1.000000 0.000000
vn 0.000000 -1.000000 0.000000
vn 0.000000 -1.000000 0.000000
vn -1.000000 0.000000 0.000000
vn -1.000000 0.000000 0.000000
vn -1.000000 0.000000 0.000000
vn -1.000000 0.000000 0.000000
vn 0.000000 1.000000 0.000000
vn 0.000000 1.000000 0.000000
vn 0.000000 1.000000 0.000000
vn 0.000000 1.000000 0.000000
vn 0.000000 1.000000 0.000000
vn 0.000000 1.000000 0.000000
vn 0.000000 1.000000 0.000000
vn 0.000000 1.000000 0.000000
usemtl Material_1
f 7//7 8//8 3//3
f 3//3 6//5 1//2
f 7//7 4//4 5//6
f 8//8 6//5 3//3
f 5//6 4//4 2//1
f 5//6 2//1 1//2
f 6//5 5//6 1//2
f 7//7 3//3 4//4
f 10//11 8//9 9//10
f 6//12 8//9 10//11
f 9//15 12//16 11//13
f 9//15 11//13 10//14
f 16//24 14//17 12//23
f 13//18 11//22 14//17
f 7//20 13//18 15//19
f 5//21 13//18 7//20
f 11//22 12//23 14//17
f 5//21 11//22 13//18
g unnamed2
v 2900.000000 650.000000 -2900.000000
v 2900.000000 150.000000 -2900.000000
v 2900.000000 650.000000 -2500.000000
v 2900.000000 150.000000 -2500.000000
v 2850.000000 100.000000 -2900.000000
v 2850.000000 100.000000 -2500.000000
v 2098.808848 100.000000 -2900.000000
v 2098.808848 100.000000 -2500.000000
v 1050.000000 -2100.000000 -2500.000000
v 1050.000000 -2100.000000 -2900.000000
v 2899.240388 141.317591 -2900.000000
v 2896.984631 132.898993 -2900.000000
v 2893.301270 125.000000 -2900.000000
v 2888.302222 117.860620 -2900.000000
v 2882.139380 111.697778 -2900.000000
v 2875.000000 106.698730 -2900.000000
v 2867.101007 103.015369 -2900.000000
v 2858.682409 100.759612 -2900.000000
v 2899.240388 141.317591 -2500.000000
v 2896.984631 132.898993 -2500.000000
v 2893.301270 125.000000 -2500.000000
v 2888.302222 117.860620 -2500.000000
v 2882.139380 111.697778 -2500.000000
v 2875.000000 106.698730 -2500.000000
v 2867.101007 103.015369 -2500.000000
v 2858.682409 100.759612 -2500.000000
v 1866.128231 79.796876 -2500.000000
v 1640.411873 19.792193 -2500.000000
v 1428.415592 -78.218074 -2500.000000
v 1236.484552 -211.300425 -2500.000000
v 1070.363357 -375.471629 -2500.000000
v 935.024106 -565.817953 -2500.000000
v 834.517577 -776.642225 -2500.000000
v 771.851988 -1001.634358 -2500.000000
v 748.902954 -1234.060213 -2500.000000
v 766.357352 -1466.963154 -2500.000000
v 823.692762 -1693.372267 -2500.000000
v 919.193104 -1906.511003 -2500.000000
v 1866.128231 79.796876 -2900.000000
v 1640.411873 19.792193 -2900.000000
v 1428.415592 -78.218074 -2900.000000
v 1236.484552 -211.300425 -2900.000000
v 1070.363357 -375.471629 -2900.000000
v 935.024106 -565.817953 -2900.000000
v 834.517577 -776.642225 -2900.000000
v 771.851988 -1001.634358 -2900.000000
v 748.902954 -1234.060213 -2900.000000
v 766.357352 -1466.963154 -2900.000000
v 823.692762 -1693.372267 -2900.000000
v 919.193104 -1906.511003 -2900.000000
vn 1.000000 0.000000 0.000000
vn 1.000000 0.000000 0.000000
vn 1.000000 0.000000 0.000000
vn 1.000000 0.000000 0.000000
vn 0.000000 -1.000000 0.000000
vn 0.173648 -0.984808 0.000000
vn 0.342020 -0.939693 0.000000
vn 0.500000 -0.866025 0.000000
vn 0.642788 -0.766044 0.000000
vn 0.766044 -0.642788 0.000000
vn 0.866025 -0.500000 0.000000
vn 0.939693 -0.342020 0.000000
vn 0.984808 -0.173648 0.000000
vn 1.000000 0.000000 0.000000
vn 1.000000 0.000000 0.000000
vn 0.984808 -0.173648 0.000000
vn 0.939693 -0.342020 0.000000
vn 0.866025 -0.500000 0.000000
vn 0.766044 -0.642788 0.000000
vn 0.642788 -0.766044 0.000000
vn 0.500000 -0.866025 0.000000
vn 0.342020 -0.939693 0.000000
vn 0.173648 -0.984808 0.000000
vn 0.000000 -1.000000 0.000000
vn 0.000000 -1.000000 0.000000
vn 0.000000 -1.000000 0.000000
vn 0.000000 -1.000000 0.000000
vn 0.000000 -1.000000 0.000000
vn 0.776895 0.629630 0.000000
vn 0.776895 0.629630 0.000000
vn 0.873789 0.486304 0.000000
vn 0.944530 0.328424 0.000000
vn 0.987001 0.160713 0.000000
vn 0.999930 -0.011807 0.000000
vn 0.982931 -0.183975 0.000000
vn 0.936512 -0.350635 0.000000
vn 0.862063 -0.506802 0.000000
vn 0.761811 -0.647799 0.000000
vn 0.638759 -0.769407 0.000000
vn 0.496588 -0.867987 0.000000
vn 0.339553 -0.940587 0.000000
vn 0.172356 -0.985035 0.000000
vn -0.000000 -1.000000 0.000000
vn -0.000000 -1.000000 0.000000
vn 0.172356 -0.985035 0.000000
vn 0.339553 -0.940587 0.000000
vn 0.496588 -0.867987 0.000000
vn 0.638759 -0.769407 0.000000
vn 0.761811 -0.647799 0.000000
vn 0.862063 -0.506802 0.000000
vn 0.936512 -0.350635 0.000000
vn 0.982931 -0.183975 0.000000
vn 0.999930 -0.011807 0.000000
vn 0.987001 0.160713 0.000000
vn 0.944530 0.328424 0.000000
vn 0.873789 0.486304 0.000000
usemtl Material_2
f 19//27 18//25 17//26
f 20//28 18//25 19//27
f 34//30 42//47 21//29
f 33//31 41//46 34//30
f 32//32 40//45 33//31
f 31//33 39//44 32//32
f 30//34 38//43 31//33
f 29//35 37//42 30//34
f 28//36 36//41 29//35
f 27//37 35//40 28//36
f 18//38 20//39 27//37
f 35//40 27//37 20//39
f 36//41 28//36 35//40
f 37//42 29//35 36//41
f 38//43 30//34 37//42
f 39//44 31//33 38//43
f 40//45 32//32 39//44
f 41//46 33//31 40//45
f 42//47 34//30 41//46
f 22//48 21//29 42//47
f 22//51 24//52 23//49
f 22//51 23//49 21//50
f 54//55 25//54 26//53
f 66//80 54//55 26//53
f 65//79 53//56 54//55
f 64//78 52//57 53//56
f 63//77 51//58 52//57
f 62//76 50//59 51//58
f 61//75 49//60 50//59
f 55//69 23//68 43//66
f 59//73 47//62 48//61
f 58//72 46//63 47//62
f 57//71 45//64 46//63
f 56//70 44//65 45//64
f 24//67 43//66 23//68
f 55//69 43//66 44//65
f 60//74 48//61 49//60
f 56//70 55//69 44//65
f 57//71 56//70 45//64
f 58//72 57//71 46//63
f 59//73 58//72 47//62
f 60//74 59//73 48//61
f 61//75 60//74 49//60
f 62//76 61//75 50//59
f 63//77 62//76 51//58
f 64//78 63//77 52//57
f 65//79 64//78 53//56
f 66//80 65//79 54//55
g unnamed3
v 1050.000000 -2100.000000 -2900.000000
v 1050.000000 -2100.000000 -2500.000000
v 2900.000000 -2100.000000 -2900.000000
v 2900.000000 -2100.000000 -2500.000000
v 2098.808848 100.000000 -2900.000000
v 2098.808848 100.000000 -2500.000000
v 2850.000000 100.000000 -2900.000000
v 2850.000000 100.000000 -2500.000000
v 2900.000000 150.000000 -2900.000000
v 2900.000000 150.000000 -2500.000000
v 2900.000000 -850.000000 -2900.000000
v 2900.000000 -850.000000 -2500.000000
v 1866.128231 79.796876 -2900.000000
v 1640.411873 19.792193 -2900.000000
v 1428.415592 -78.218074 -2900.000000
v 1236.484552 -211.300425 -2900.000000
v 1070.363357 -375.471629 -2900.000000
v 935.024106 -565.817953 -2900.000000
v 834.517577 -776.642225 -2900.000000
v 771.851988 -1001.634358 -2900.000000
v 748.902954 -1234.060213 -2900.000000
v 766.357352 -1466.963154 -2900.000000
v 823.692762 -1693.372267 -2900.000000
v 919.193104 -1906.511003 -2900.000000
v 919.193104 -1906.511003 -2500.000000
v 823.692762 -1693.372267 -2500.000000
v 766.357352 -1466.963154 -2500.000000
v 748.902954 -1234.060213 -2500.000000
v 771.851988 -1001.634358 -2500.000000
v 834.517577 -776.642225 -2500.000000
v 935.024106 -565.817953 -2500.000000
v 1070.363357 -375.471629 -2500.000000
v 1236.484552 -211.300425 -2500.000000
v 1428.415592 -78.218074 -2500.000000
v 1640.411873 19.792193 -2500.000000
v 1866.128231 79.796876 -2500.000000
v 2899.240388 141.317591 -2500.000000
v 2896.984631 132.898993 -2500.000000
v 2893.301270 125.000000 -2500.000000
v 2888.302222 117.860620 -2500.000000
v 2882.139380 111.697778 -2500.000000
v 2875.000000 106.698730 -2500.000000
v 2867.101007 103.015369 -2500.000000
v 2858.682409 100.759612 -2500.000000
v 2858.682409 100.759612 -2900.000000
v 2867.101007 103.015369 -2900.000000
v 2875.000000 106.698730 -2900.000000
v 2882.139380 111.697778 -2900.000000
v 2888.302222 117.860620 -2900.000000
v 2893.301270 125.000000 -2900.000000
v 2896.984631 132.898993 -2900.000000
v 2899.240388 141.317591 -2900.000000
v 2804.436535 -938.949802 -2900.000000
v 2724.703153 -1042.327899 -2900.000000
v 2662.945952 -1157.351771 -2900.000000
v 2620.827186 -1280.925444 -2900.000000
v 2599.480519 -1409.722816 -2900.000000
v 2599.480519 -1540.277184 -2900.000000
v 2620.827186 -1669.074556 -2900.000000
v 2662.945952 -1792.648229 -2900.000000
v 2724.703153 -1907.672101 -2900.000000
v 2804.436535 -2011.050198 -2900.000000
v 2804.436535 -2011.050198 -2500.000000
v 2724.703153 -1907.672101 -2500.000000
v 2662.945952 -1792.648229 -2500.000000
v 2620.827186 -1669.074556 -2500.000000
v 2599.480519 -1540.277184 -2500.000000
v 2599.480519 -1409.722816 -2500.000000
v 2620.827186 -1280.925444 -2500.000000
v 2662.945952 -1157.351771 -2500.000000
v 2724.703153 -1042.327899 -2500.000000
v 2804.436535 -938.949802 -2500.000000
vn -0.000000 -1.000000 -0.000000
vn -0.000000 -1.000000 -0.000000
vn -0.000000 -1.000000 -0.000000
vn -0.000000 -1.000000 -0.000000
vn 0.000000 1.000000 0.000000
vn 0.000000 1.000000 0.000000
vn -0.172356 0.985035 0.000000
vn -0.339553 0.940587 0.000000
vn -0.496588 0.867987 0.000000
vn -0.638759 0.769407 0.000000
vn -0.761811 0.647799 0.000000
vn -0.862063 0.506802 0.000000
vn -0.936512 0.350635 0.000000
vn -0.982931 0.183975 0.000000
vn -0.999930 0.011807 0.000000
vn -0.987001 -0.160713 -0.000000
vn -0.944530 -0.328424 -0.000000
vn -0.873789 -0.486304 -0.000000
vn -0.776895 -0.629630 -0.000000
vn -0.776895 -0.629630 -0.000000
vn -0.873789 -0.486304 -0.000000
vn -0.944530 -0.328424 -0.000000
vn -0.987001 -0.160713 -0.000000
vn -0.999930 0.011807 0.000000
vn -0.982931 0.183975 0.000000
vn -0.936512 0.350635 0.000000
vn -0.862063 0.506802 0.000000
vn -0.761811 0.647799 0.000000
vn -0.638759 0.769407 0.000000
vn -0.496588 0.867987 0.000000
vn -0.339553 0.940587 0.000000
vn -0.172356 0.985035 0.000000
vn 0.000000 1.000000 0.000000
vn 0.000000 1.000000 0.000000
vn 0.000000 1.000000 0.000000
vn 0.000000 1.000000 0.000000
vn -1.000000 -0.000000 0.000000
vn -1.000000 -0.000000 0.000000
vn -0.984808 0.173648 0.000000
vn -0.939693 0.342020 0.000000
vn -0.866025 0.500000 0.000000
vn -0.766044 0.642788 0.000000
vn -0.642788 0.766044 0.000000
vn -0.500000 0.866025 0.000000
vn -0.342020 0.939693 0.000000
vn -0.173648 0.984808 0.000000
vn 0.000000 1.000000 0.000000
vn 0.000000 1.000000 0.000000
vn -0.173648 0.984808 0.000000
vn -0.342020 0.939693 0.000000
vn -0.500000 0.866025 0.000000
vn -0.642788 0.766044 0.000000
vn -0.766044 0.642788 0.000000
vn -0.866025 0.500000 0.000000
vn -0.939693 0.342020 0.000000
vn -0.984808 0.173648 0.000000
vn 1.000000 0.000000 0.000000
vn 1.000000 0.000000 0.000000
vn 1.000000 0.000000 0.000000
vn 1.000000 0.000000 0.000000
vn 0.618983 0.785405 0.000000
vn 0.618983 0.785405 0.000000
vn 0.739072 0.673626 0.000000
vn 0.839269 0.543716 0.000000
vn 0.916876 0.399172 0.000000
vn 0.969805 0.243883 0.000000
vn 0.996630 0.082030 0.000000
vn 0.996630 -0.082030 0.000000
vn 0.969805 -0.243883 0.000000
vn 0.916876 -0.399172 0.000000
vn 0.839269 -0.543716 0.000000
vn 0.739072 -0.673626 0.000000
vn 0.618983 -0.785405 0.000000
vn 0.618983 -0.785405 0.000000
vn 0.739072 -0.673626 0.000000
vn 0.839269 -0.543716 0.000000
vn 0.916876 -0.399172 0.000000
vn 0.969805 -0.243883 0.000000
vn 0.996630 -0.082030 0.000000
vn 0.996630 0.082030 0.000000
vn 0.969805 0.243883 0.000000
vn 0.916876 0.399172 0.000000
vn 0.839269 0.543716 0.000000
vn 0.739072 0.673626 0.000000
vn -0.000000 -0.000000 1.000000
vn -0.000000 -0.000000 1.000000
vn -0.000000 -0.000000 1.000000
vn -0.000000 -0.000000 1.000000
vn -0.000000 -0.000000 1.000000
vn -0.000000 -0.000000 1.000000
vn -0.000000 -0.000000 1.000000
vn -0.000000 -0.000000 1.000000
vn -0.000000 -0.000000 1.000000
vn -0.000000 -0.000000 1.000000
vn -0.000000 -0.000000 1.000000
vn -0.000000 -0.000000 1.000000
vn -0.000000 -0.000000 1.000000
vn -0.000000 -0.000000 1.000000
vn -0.000000 -0.000000 1.000000
vn -0.000000 -0.000000 1.000000
vn -0.000000 -0.000000 1.000000
vn -0.000000 -0.000000 1.000000
vn -0.000000 -0.000000 1.000000
vn -0.000000 -0.000000 1.000000
vn -0.000000 -0.000000 1.000000
vn -0.000000 -0.000000 1.000000
vn -0.000000 -0.000000 1.000000
vn -0.000000 -0.000000 1.000000
vn -0.000000 -0.000000 1.000000
vn -0.000000 -0.000000 1.000000
vn -0.000000 -0.000000 1.000000
vn -0.000000 -0.000000 1.000000
vn -0.000000 -0.000000 1.000000
vn -0.000000 -0.000000 1.000000
vn -0.000000 -0.000000 1.000000
vn -0.000000 -0.000000 1.000000
vn -0.000000 -0.000000 1.000000
vn -0.000000 -0.000000 1.000000
vn -0.000000 -0.000000 1.000000
vn -0.000000 -0.000000 1.000000
vn 0.000000 0.000000 -1.000000
vn 0.000000 0.000000 -1.000000
vn 0.000000 0.000000 -1.000000
vn 0.000000 0.000000 -1.000000
vn 0.000000 0.000000 -1.000000
vn 0.000000 0.000000 -1.000000
vn 0.000000 0.000000 -1.000000
vn 0.000000 0.000000 -1.000000
vn 0.000000 0.000000 -1.000000
vn 0.000000 0.000000 -1.000000
vn 0.000000 0.000000 -1.000000
vn 0.000000 0.000000 -1.000000
vn 0.000000 0.000000 -1.000000
vn 0.000000 0.000000 -1.000000
vn 0.000000 0.000000 -1.000000
vn 0.000000 0.000000 -1.000000
vn 0.000000 0.000000 -1.000000
vn 0.000000 0.000000 -1.000000
vn 0.000000 0.000000 -1.000000
vn 0.000000 0.000000 -1.000000
vn 0.000000 0.000000 -1.000000
vn 0.000000 0.000000 -1.000000
vn 0.000000 0.000000 -1.000000
vn 0.000000 0.000000 -1.000000
vn 0.000000 0.000000 -1.000000
vn 0.000000 0.000000 -1.000000
vn 0.000000 0.000000 -1.000000
vn 0.000000 0.000000 -1.000000
vn 0.000000 0.000000 -1.000000
vn 0.000000 0.000000 -1.000000
vn 0.000000 0.000000 -1.000000
vn 0.000000 0.000000 -1.000000
vn 0.000000 0.000000 -1.000000
vn 0.000000 0.000000 -1.000000
vn 0.000000 0.000000 -1.000000
vn 0.000000 0.000000 -1.000000
usemtl Material_2
f 69//83 70//82 68//81
f 67//84 69//83 68//81
f 79//87 72//85 71//86
f 102//112 79//87 101//111
f 100//110 81//89 99//109
f 98//108 83//91 97//107
f 96//106 85//93 95//105
f 94//104 87//95 93//103
f 92//102 89//97 91//101
f 91//101 90//98 68//100
f 95//105 85//93 86//94
f 94//104 86//94 87//95
f 93//103 87//95 88//96
f 92//102 88//96 89//97
f 67//99 68//100 90//98
f 91//101 89//97 90//98
f 96//106 84//92 85//93
f 93//103 88//96 92//102
f 97//107 83//91 84//92
f 95//105 86//94 94//104
f 98//108 82//90 83//91
f 97//107 84//92 96//106
f 99//109 81//89 82//90
f 99//109 82//90 98//108
f 100//110 80//88 81//89
f 101//111 80//88 100//110
f 101//111 79//87 80//88
f 102//112 72//85 79//87
f 71//115 72//114 74//113
f 73//116 71//115 74//113
f 103//119 76//118 75//117
f 118//136 103//119 75//117
f 117//135 104//120 103//119
f 116//134 105//121 104//120
f 115//133 106//122 105//121
f 114//132 107//123 106//122
f 113//131 108//124 107//123
f 112//130 109//125 108//124
f 111//129 110//126 109//125
f 73//128 74//127 110//126
f 111//129 73//128 110//126
f 112//130 111//129 109//125
f 113//131 112//130 108//124
f 114//132 113//131 107//123
f 115//133 114//132 106//122
f 116//134 115//133 105//121
f 117//135 116//134 104//120
f 118//136 117//135 103//119
f 76//139 77//137 75//138
f 78//140 77//137 76//139
f 129//143 70//142 69//141
f 128//164 129//143 69//141
f 127//163 130//144 129//143
f 126//162 131//145 130//144
f 125//161 132//146 131//145
f 124//160 133//147 132//146
f 119//155 77//154 138//152
f 122//158 135//149 134//148
f 121//157 136//150 135//149
f 120//156 137//151 136//150
f 119//155 138//152 137//151
f 77//154 78//153 138//152
f 120//156 119//155 137//151
f 121//157 120//156 136//150
f 122//158 121//157 135//149
f 123//159 122//158 134//148
f 125//161 124//160 132//146
f 126//162 125//161 131//145
f 127//163 126//162 130//144
f 128//164 127//163 129//143
f 124//160 123//159 134//148
f 134//148 133//147 124//160
f 129//167 68//165 70//166
f 130//168 68//165 129//167
f 131//169 68//165 130//168
f 132//170 68//165 131//169
f 133//171 68//165 132//170
f 91//200 68//165 133//171
f 91//200 133//171 134//172
f 95//196 134//172 135//173
f 99//192 135//173 136//174
f 72//188 137//175 138//176
f 72//188 138//176 78//177
f 103//179 78//177 76//178
f 104//180 78//177 103//179
f 105//181 78//177 104//180
f 102//189 136//174 137//175
f 106//182 78//177 105//181
f 107//183 78//177 106//182
f 108//184 78//177 107//183
f 109//185 78//177 108//184
f 110//186 78//177 109//185
f 74//187 78//177 110//186
f 72//188 78//177 74//187
f 102//189 137//175 72//188
f 101//190 136//174 102//189
f 100//191 136//174 101//190
f 99//192 136//174 100//191
f 98//193 135//173 99//192
f 97//194 135//173 98//193
f 96//195 135//173 97//194
f 95//196 135//173 96//195
f 94//197 134//172 95//196
f 93//198 134//172 94//197
f 92//199 134//172 93//198
f 91//200 134//172 92//199
f 128//203 69//202 67//201
f 127//204 128//203 67//201
f 126//205 127//204 67//201
f 125//206 126//205 67//201
f 124//207 125//206 67//201
f 90//236 124//207 67//201
f 90//236 123//208 124//207
f 86//232 122//209 123//208
f 82//228 121//210 122//209
f 71//224 119//212 120//211
f 71//224 77//213 119//212
f 118//215 75//214 77//213
f 117//216 118//215 77//213
f 116//217 117//216 77//213
f 79//225 120//211 121//210
f 115//218 116//217 77//213
f 114//219 115//218 77//213
f 113//220 114//219 77//213
f 112//221 113//220 77//213
f 111//222 112//221 77//213
f 73//223 111//222 77//213
f 71//224 73//223 77//213
f 79//225 71//224 120//211
f 80//226 79//225 121//210
f 81//227 80//226 121//210
f 82//228 81//227 121//210
f 83//229 82//228 122//209
f 84//230 83//229 122//209
f 85//231 84//230 122//209
f 86//232 85//231 122//209
f 87//233 86//232 123//208
f 88//234 87//233 123//208
f 89//235 88//234 123//208
f 90//236 89//235 123//208
g unnamed4
v 1050.000000 -2100.000000 -2500.000000
v 1050.000000 -2100.000000 -2900.000000
v 2900.000000 -2100.000000 -2500.000000
v 2900.000000 -2100.000000 -2900.000000
v 1050.000000 -4500.000000 -2500.000000
v 1050.000000 -4500.000000 -2900.000000
v 2900.000000 -4500.000000 -2900.000000
v 2900.000000 -4500.000000 -2500.000000
vn 0.000000 1.000000 0.000000
vn 0.000000 1.000000 0.000000
vn 0.000000 1.000000 0.000000
vn 0.000000 1.000000 0.000000
vn 0.000000 -1.000000 0.000000
vn 0.000000 -1.000000 0.000000
vn 0.000000 -1.000000 0.000000
vn 0.000000 -1.000000 0.000000
vn 0.000000 0.000000 -1.000000
vn 0.000000 0.000000 -1.000000
vn 0.000000 0.000000 -1.000000
vn 0.000000 0.000000 -1.000000
vn 1.000000 0.000000 0.000000
vn 1.000000 0.000000 0.000000
vn 1.000000 0.000000 0.000000
vn 1.000000 0.000000 0.000000
vn -0.000000 0.000000 1.000000
vn -0.000000 0.000000 1.000000
vn -0.000000 0.000000 1.000000
vn -0.000000 0.000000 1.000000
vn -1.000000 0.000000 0.000000
vn -1.000000 0.000000 0.000000
vn -1.000000 0.000000 0.000000
vn -1.000000 0.000000 0.000000
usemtl Material_2
f 141//239 140//237 139//238
f 142//240 140//237 141//239
f 144//242 145//243 143//241
f 146//244 143//241 145//243
f 142//247 144//245 140//246
f 145//248 144//245 142//247
f 142//250 141//251 145//249
f 146//252 145//249 141//251
f 139//255 146//253 141//254
f 143//256 146//253 139//255
f 140//259 143//257 139//258
f 144//260 143//257 140//259
g unnamed5
v 2900.000000 -2100.000000 -2900.000000
v 2900.000000 -2000.000000 -2900.000000
v 2800.000000 -2000.000000 -2900.000000
v 2800.000000 -1200.000000 -2900.000000
v 2900.000000 -1200.000000 -2900.000000
v 2900.000000 -1100.000000 -2900.000000
v -2900.000000 -1100.000000 -2900.000000
v -2900.000000 -2100.000000 -2900.000000
v -2900.000000 -1100.000000 -3200.000000
v -2900.000000 -2100.000000 -3200.000000
v 2900.000000 -1100.000000 -3200.000000
v 2900.000000 -2100.000000 -3200.000000
v 2900.000000 -1200.000000 0.000000
v 2900.000000 -2000.000000 0.000000
vn 0.000000 -0.000000 1.000000
vn 0.000000 -0.000000 1.000000
vn 0.000000 -0.000000 1.000000
vn 0.000000 -0.000000 1.000000
vn 0.000000 -0.000000 1.000000
vn 0.000000 -0.000000 1.000000
vn 0.000000 -0.000000 1.000000
vn 0.000000 -0.000000 1.000000
vn -1.000000 -0.000000 0.000000
vn -1.000000 -0.000000 0.000000
vn -1.000000 -0.000000 0.000000
vn -1.000000 -0.000000 0.000000
vn 0.000000 0.000000 -1.000000
vn 0.000000 0.000000 -1.000000
vn 0.000000 0.000000 -1.000000
vn 0.000000 0.000000 -1.000000
vn 0.000000 -1.000000 0.000000
vn 0.000000 -1.000000 0.000000
vn 0.000000 -1.000000 0.000000
vn 0.000000 -1.000000 0.000000
vn 0.000000 1.000000 0.000000
vn 0.000000 1.000000 0.000000
vn 0.000000 1.000000 0.000000
vn 0.000000 1.000000 0.000000
vn 1.000000 0.000000 0.000000
vn 1.000000 0.000000 0.000000
vn 1.000000 0.000000 0.000000
vn 1.000000 0.000000 0.000000
vn 1.000000 0.000000 0.000000
vn 1.000000 0.000000 0.000000
vn 1.000000 0.000000 0.000000
vn 1.000000 0.000000 0.000000
usemtl Material_3
f 149//263 154//268 147//261
f 149//263 147//261 148//262
f 150//264 153//267 149//263
f 151//265 152//266 150//264
f 152//266 153//267 150//264
f 154//268 149//263 153//267
f 156//271 154//270 153//269
f 155//272 156//271 153//269
f 158//275 155//273 157//274
f 156//276 155//273 158//275
f 147//279 154//280 156//277
f 147//279 156//277 158//278
f 157//283 153//281 152//282
f 155//284 153//281 157//283
f 151//287 157//285 152//286
f 160//289 148//290 151//287
f 160//289 151//287 159//288
f 148//290 157//285 151//287
f 158//292 157//285 148//290
f 158//292 148//290 147//291
g unnamed6
v 2900.000000 -1200.000000 0.000000
v 2900.000000 -1200.000000 -2900.000000
v 2800.000000 -1200.000000 -2900.000000
v 2800.000000 -1200.000000 0.000000
v 2800.000000 -2000.000000 -2900.000000
v 2800.000000 -2000.000000 0.000000
v 2900.000000 -2000.000000 -2900.000000
v 2900.000000 -2000.000000 0.000000
vn 0.000000 1.000000 0.000000
vn 0.000000 1.000000 0.000000
vn 0.000000 1.000000 0.000000
vn 0.000000 1.000000 0.000000
vn -1.000000 0.000000 0.000000
vn -1.000000 0.000000 0.000000
vn -1.000000 0.000000 0.000000
vn -1.000000 0.000000 0.000000
vn 0.000000 -1.000000 -0.000000
vn 0.000000 -1.000000 -0.000000
vn 0.000000 -1.000000 -0.000000
vn 0.000000 -1.000000 -0.000000
vn -0.000000 -0.000000 1.000000
vn -0.000000 -0.000000 1.000000
vn -0.000000 -0.000000 1.000000
vn -0.000000 -0.000000 1.000000
usemtl Material_1
f 163//295 164//294 161//293
f 162//296 163//295 161//293
f 166//298 164//297 165//299
f 163//300 165//299 164//297
f 167//303 168//302 166//301
f 165//304 167//303 166//301
f 161//307 164//306 166//305
f 168//308 161//307 166//305
g unnamed7
v -2900.000000 -1200.000000 -2900.000000
v -2900.000000 -2000.000000 -2900.000000
v -2800.000000 -1200.000000 -2900.000000
v -2800.000000 -2000.000000 -2900.000000
v -2900.000000 -1200.000000 0.000000
v -2800.000000 -1200.000000 0.000000
v -2800.000000 -2000.000000 0.000000
v -2900.000000 -2000.000000 0.000000
vn 0.000000 0.000000 -1.000000
vn 0.000000 0.000000 -1.000000
vn 0.000000 0.000000 -1.000000
vn 0.000000 0.000000 -1.000000
vn 0.000000 1.000000 0.000000
vn 0.000000 1.000000 0.000000
vn 0.000000 1.000000 0.000000
vn 0.000000 1.000000 0.000000
vn 1.000000 0.000000 0.000000
vn 1.000000 0.000000 0.000000
vn 1.000000 0.000000 0.000000
vn 1.000000 0.000000 0.000000
vn 0.000000 -1.000000 -0.000000
vn 0.000000 -1.000000 -0.000000
vn 0.000000 -1.000000 -0.000000
vn 0.000000 -1.000000 -0.000000
vn -1.000000 -0.000000 0.000000
vn -1.000000 -0.000000 0.000000
vn -1.000000 -0.000000 0.000000
vn -1.000000 -0.000000 0.000000
vn -0.000000 -0.000000 1.000000
vn -0.000000 -0.000000 1.000000
vn -0.000000 -0.000000 1.000000
vn -0.000000 -0.000000 1.000000
usemtl Material_1
f 171//311 172//310 170//309
f 169//312 171//311 170//309
f 174//315 171//314 169//313
f 173//316 174//315 169//313
f 172//318 171//317 175//319
f 174//320 175//319 171//317
f 176//323 170//322 172//321
f 175//324 176//323 172//321
f 169//326 170//325 173//327
f 176//328 173//327 170//325
f 174//331 173//330 176//329
f 175//332 174//331 176//329
